<svg width="1056" height="157" viewBox="0 0 1056 157" fill="none" xmlns="http://www.w3.org/2000/svg">
<path d="M234.498 63.4177V61.4177H232.498H177.163V39.2828H258.695H260.695V37.2828V5.23047V3.23047H258.695H155.887H155.804L155.721 3.23735C150.359 3.68318 146.729 6.22622 144.434 9.24766C142.186 12.2061 141.235 15.5903 141.043 17.8849L141.036 17.968V18.0514V142.809V142.951L141.056 143.092C141.748 147.925 144.44 150.962 147.487 152.718C150.444 154.422 153.724 154.927 155.911 154.876H258.695H260.695V152.876V118.153V116.153H258.695H176.669V96.9599L232.515 96.4837L234.498 96.4668V94.4838V63.4177Z" fill="#444444" stroke="white" stroke-width="4"/>
<path d="M41.6819 5.23047V3.23047H39.6819H4H2V5.23047V152.88V154.88H4H39.6819H41.6819V152.88V5.23047Z" fill="#444444" stroke="white" stroke-width="4"/>
<path d="M131.119 6.40641L133.428 3.23047H129.502H94.558H93.5677L92.9674 4.01813L41.7823 71.1763L40.8644 72.3806L41.7746 73.5907L102.311 154.082L102.911 154.88H103.909H144.267H148.307L145.857 151.667L84.2551 70.8786L131.119 6.40641Z" fill="#444444" stroke="white" stroke-width="4"/>
<path d="M264.847 3.23047H262.847V5.23047V152.88V154.88H264.847H300.529H302.529V152.88V5.23047V3.23047H300.529H264.847Z" fill="#444444" stroke="white" stroke-width="4"/>
<path d="M306.681 3.23047H304.681V5.23047V37.1674V39.1674H306.681H344.196C357.818 43.4577 369.673 56.8727 372.178 72.3715C374.644 87.6339 368.064 105.29 343.999 118.204H307.172H305.172V120.204V151.649V153.649H307.172H357.269H357.741L358.164 153.438C388.765 138.131 406.874 108.497 408.258 78.717C409.648 48.8377 394.19 18.9556 358.06 3.39361L357.681 3.23047H357.269H306.681Z" fill="#444444" stroke="white" stroke-width="4"/>
<path d="M444.473 33.957L442.671 29.8476L440.819 33.9345L387.297 152.054L386.016 154.879H389.118H428.765H430.107L430.616 153.638L462.333 76.2148L462.654 75.4301L462.314 74.6536L444.473 33.957Z" fill="#444444" stroke="white" stroke-width="4"/>
<path d="M500.745 153.688L501.272 154.88H502.575H542.92H546.151L544.71 151.987L470.908 3.92888L470.513 3.13629L469.66 2.89608C467.402 2.25954 463.769 1.72727 460.024 2.15304C456.281 2.57848 452.162 3.99791 449.348 7.53804C446.659 10.9214 445.518 15.182 445.124 18.9745C444.728 22.7819 445.062 26.331 445.511 28.4999L445.554 28.708L445.64 28.9024L500.745 153.688Z" fill="#444444" stroke="white" stroke-width="4"/>
<path d="M967.41 5.23047H931.729V152.88H967.41V5.23047Z" fill="#4FDC54"/>
<path d="M1056 152.88V5.23047H1020.74V63.4317H974.793V91.0526H1020.74V152.88H1056Z" fill="#4FDC54"/>
<path d="M556.454 33.7273V5.23047H675.803V34.2186H633.883V149.188H598.374V33.7273H556.454Z" fill="#4FDC54"/>
<path d="M719.004 62.1873V36.0523H802.536V4H699.728C690.238 4.78898 687.207 12.876 686.877 16.8209V141.578C688.063 149.863 695.939 151.742 699.728 151.646H802.536V116.923H718.51V93.7464L776.339 93.2533V62.1873H719.004Z" fill="#4FDC54"/>
<path d="M873.498 5.23047H918.936L919.425 37.2211H880.338C839.297 41.1584 823.663 102.187 880.338 120.397H918.936V152.88H873.498C787.508 135.162 789.951 21.964 873.498 5.23047Z" fill="#4FDC54"/>
</svg>
