<svg width="444" height="444" viewBox="0 0 444 444" fill="none" xmlns="http://www.w3.org/2000/svg">
<path d="M138.753 147.183L180.238 121.653C180.571 121.448 181 121.688 181 122.079V226.917C181 230.202 185.118 231.677 187.204 229.139L272.587 125.256C272.742 125.068 273.01 125.019 273.221 125.14L273.966 123.837L273.221 125.14L321.878 152.944C322.172 153.112 322.217 153.517 321.968 153.746L210.407 256.091C209.019 257.364 208.888 259.508 210.11 260.941L262.256 322.094C262.463 322.336 262.394 322.707 262.114 322.858L224.431 343.289C224.2 343.414 223.91 343.339 223.77 343.116L187.46 285.552C185.588 282.584 181 283.911 181 287.42V319.509C181 319.896 180.58 320.136 180.247 319.941L140.732 296.777C140.581 296.688 140.487 296.527 140.485 296.352L138.515 147.615C138.513 147.439 138.603 147.275 138.753 147.183Z" fill="#EEEEEE" stroke="white" stroke-width="3"/>
<path d="M226.5 83.8493V31.3757C226.5 30.9958 226.907 30.7547 227.24 30.9372L385.74 117.746C385.9 117.834 386 118.002 386 118.185V153.535C386 153.826 385.706 154.146 385.287 154.085C375.213 152.626 365.21 155.034 356.496 158.873C347.777 162.715 340.252 168.031 335.08 172.53C334.894 172.693 334.632 172.733 334.37 172.62C334.115 172.51 334 172.319 334 172.107V148.651C334 147.404 333.337 146.251 332.259 145.625L226.749 84.2816C226.595 84.1921 226.5 84.0274 226.5 83.8493Z" fill="#EEEEEE" stroke="white" stroke-width="3"/>
<path d="M215.5 360.638V411.628C215.5 412.007 215.093 412.248 214.76 412.066L57.7602 326.253C57.5998 326.165 57.5 325.997 57.5 325.814L57.5 290.465C57.5 290.174 57.7937 289.854 58.2129 289.915C68.2867 291.374 78.2899 288.966 87.0038 285.127C95.723 281.285 103.248 275.969 108.42 271.47C108.606 271.307 108.868 271.267 109.13 271.38C109.385 271.49 109.5 271.681 109.5 271.893V295.362C109.5 296.597 110.15 297.74 111.212 298.371L215.255 360.208C215.407 360.298 215.5 360.462 215.5 360.638Z" fill="#EEEEEE" stroke="white" stroke-width="3"/>
<path d="M56 277.527V121.686C56 121.562 56.0112 121.438 56.0358 121.317C57.3139 115.019 63.1938 110.821 66 109.5L214.05 29.5922C215.383 28.873 217 29.838 217 31.3522V84.8703C217 85.5714 216.633 86.2213 216.033 86.5832L110.967 149.917C110.367 150.279 110 150.929 110 151.63V249.965C110 250.315 109.907 250.664 109.728 250.966C96.7187 273.006 71.0105 279.068 57.9628 279.481C56.8693 279.515 56 278.621 56 277.527Z" fill="#4FDC54"/>
<path d="M387.272 171.135L380.896 326.845C380.891 326.969 380.874 327.092 380.845 327.212C379.31 333.453 373.263 337.407 370.405 338.612L227.94 414.435C226.607 415.144 225 414.179 225 412.67L225 360.616C225 359.922 225.359 359.278 225.949 358.914L327.216 296.404C327.781 296.055 328.136 295.448 328.163 294.784L332.189 196.464C332.204 196.114 332.311 195.77 332.502 195.475C346.402 173.986 372.337 168.98 385.391 169.102C386.485 169.113 387.317 170.042 387.272 171.135Z" fill="#4FDC54"/>
</svg>
